<svg id="Layer_1" data-name="Layer 1" xmlns="http://www.w3.org/2000/svg" width="95.79mm" height="95.26mm"
     viewBox="0 0 271.52 270.02" width="100%" height="100%">
    <defs>
        <style>.cls-1{fill:#e84242;}.cls-2{fill:#d4d8e0;}</style>
    </defs>
    <title>lifebelt</title>
    <g id="CRdCWD.tif">
        <path class="cls-1"
              d="M282.53,153.31c-1.1,3.63-.93,7.43-1.5,11.13a149.21,149.21,0,0,1-6.42,26.16,2.37,2.37,0,0,1-1,1.49c-.64-.28-1.27-.6-1.93-.82-15.92-5.42-31.86-10.81-47.77-16.27-7.57-2.6-15.29-4.75-22.7-7.81a62.57,62.57,0,0,0,2.8-31.93c-.65-3.78-1.72-7.49-2.59-11.23q24.43-8.23,48.86-16.44c7.93-2.66,15.76-5.64,23.81-7.92A130.74,130.74,0,0,1,282,135.51c.07.81-.37,1.77.5,2.43Z"
              transform="translate(-11 -10.34)"/>
        <path class="cls-2"
              d="M274.1,99.68c-8.06,2.28-15.88,5.26-23.81,7.92q-24.44,8.19-48.86,16.44c-3.36-9.87-9.7-17.59-17.49-24.25-4.78-4.08-10.37-6.81-16-9.54.26-.65.54-1.3.77-2q7.11-20.84,14.2-41.69c3.21-9.49,6.36-19,9.54-28.49a80.82,80.82,0,0,1,12.67,5.05c1,.48,2.09.9,3.13,1.34,1.52.88,2.89,2.08,4.77,2.18,3.48,3.13,7.75,5.09,11.56,7.75A136.08,136.08,0,0,1,255,63.78c3.53,4.61,6.47,9.6,9.66,14.43A18.29,18.29,0,0,0,267.18,83c2,4.48,4,9,6,13.46A27.46,27.46,0,0,1,274.1,99.68Z"
              transform="translate(-11 -10.34)"/>
        <path class="cls-2"
              d="M101.15,272.65c-4.43-1.15-8.51-3.19-12.65-5.07-1-.47-2.08-.9-3.13-1.35L81,263.85a145.6,145.6,0,0,1-18.56-12.48,147.62,147.62,0,0,1-20.83-20.46c-4.8-5.75-8.73-12.09-12.93-18.24a13,13,0,0,0-2.57-4.56c-2.14-5-4.27-9.92-6.44-14.87a7,7,0,0,1-.68-2.77l.16-.12c.74.93,1.54.41,2.38.15C36,186.06,50,180.21,64.79,176.58c8.61-2.11,16.91-5.5,25.34-8.32.82-.27,1.75-.33,2.31-1.14a18,18,0,0,0,.71,2.23,60,60,0,0,0,23,26.17c3.06,1.92,6.48,3.09,9.52,5-5.52,16-11.07,32.06-16.53,48.12C106.41,256.63,103.42,264.52,101.15,272.65Z"
              transform="translate(-11 -10.34)"/>
        <path class="cls-2"
              d="M19,100.24c1-4.76,3.39-9,5.24-13.39l1.32-3.13a15,15,0,0,0,2.55-4.6c3.66-5.67,7.26-11.38,11.45-16.71A137.26,137.26,0,0,1,68.88,34.59c3.36-2.36,6.78-4.64,10.17-7a12.86,12.86,0,0,0,5.74-3.07c4.43-1.24,8.32-3.77,12.62-5.32a12.36,12.36,0,0,1,3.77-1.12c4.47,15.54,11.08,30.4,14.71,46.22,1.19,5.21,3.22,10.23,5,15.28,1.35,3.79,2.18,7.77,4.1,11.36-9.65,3.37-17.2,9.64-23.74,17.27-4.09,4.77-6.83,10.36-9.54,16a5.46,5.46,0,0,0-.71-.36Q56.15,112,21.28,100.12c-.8-.27-1.5-.53-2.13.24Z"
              transform="translate(-11 -10.34)"/>
        <path class="cls-2"
              d="M201.22,167.21c7.41,3.05,15.13,5.21,22.7,7.8,15.91,5.46,31.85,10.84,47.77,16.27.66.22,1.29.55,1.93.82-1,4.19-3,7.95-4.72,11.85-.42,1-.81,1.92-1.21,2.88-1,1.67-2.25,3.26-2.6,5.27-2.39,3.58-4.76,7.18-7.18,10.74a131.88,131.88,0,0,1-29.5,30.74c-4.77,3.63-10,6.51-14.85,10.06a8.63,8.63,0,0,0-4.69,2.55c-4.7,1.94-9.4,3.89-14.1,5.81a23,23,0,0,1-2.25.67,5.23,5.23,0,0,0-.14-1c-5.86-17.12-11.75-34.22-16.78-51.62a181,181,0,0,0-6.92-20.23c1-.36,2-.66,2.93-1.08a57.59,57.59,0,0,0,20-15.25A47.55,47.55,0,0,0,201.22,167.21Z"
              transform="translate(-11 -10.34)"/>
        <path class="cls-1"
              d="M125,91c-1.92-3.59-2.75-7.57-4.1-11.36-1.79-5.05-3.82-10.08-5-15.28-3.63-15.83-10.24-30.68-14.71-46.22A138.31,138.31,0,0,1,158.45,11a132.08,132.08,0,0,1,34,7.16c-3.18,9.5-6.33,19-9.54,28.49q-7.06,20.86-14.2,41.69c-.23.66-.51,1.31-.77,2A59.16,59.16,0,0,0,125,91Z"
              transform="translate(-11 -10.34)"/>
        <path class="cls-1"
              d="M168.66,199.77A181,181,0,0,1,175.58,220c5,17.39,10.92,34.5,16.78,51.62a5.23,5.23,0,0,1,.14,1q-45.68,15.4-91.36,0c2.28-8.12,5.27-16,8-24,5.46-16.06,11-32.08,16.53-48.12A59.35,59.35,0,0,0,168.66,199.77Z"
              transform="translate(-11 -10.34)"/>
        <path class="cls-1"
              d="M28.1,79.11a15,15,0,0,1-2.55,4.6C16,74.49,11,63.31,12.18,50c1.51-17.47,10.47-30.13,26.76-36.54C55,7.1,69.76,10.7,82.51,22.35c.78.71,1.51,1.48,2.26,2.22A12.85,12.85,0,0,1,79,27.63c-.09-1.12-1-1.6-1.74-2.21C68.4,18,58.18,14.91,46.76,17.13c-14.2,2.76-23.89,11.22-28,25S17.74,68.63,28.1,79.11Z"
              transform="translate(-11 -10.34)"/>
        <path class="cls-1"
              d="M213.05,26.69c-1.88-.1-3.25-1.3-4.77-2.18,11.31-12.24,25.28-16.66,41.29-12.58s26.55,14.89,30.17,31.17c3.43,15.43-.78,29-12.55,39.86a18.28,18.28,0,0,1-2.49-4.75c10-9.94,13.18-22,9.77-35.44s-12.41-22.49-26-25.93S223,16.7,213.05,26.69Z"
              transform="translate(-11 -10.34)"/>
        <path class="cls-1"
              d="M26.11,208.12a13,13,0,0,1,2.57,4.56c-16.54,16.74-13.6,44.39,6,56.8A37,37,0,0,0,81,263.85l4.36,2.37c-12,12.81-26.67,17.15-43.29,12s-26.42-17.08-28.84-34.42C11.28,229.78,16.2,218,26.11,208.12Z"
              transform="translate(-11 -10.34)"/>
        <path class="cls-1"
              d="M208.86,266.18a8.63,8.63,0,0,1,4.69-2.55c9.67,10.12,21.53,13.55,34.95,10.46,14.08-3.24,23.34-12.28,26.86-26.27,3.43-13.65.08-25.8-10.27-35.72.35-2,1.56-3.6,2.6-5.27,12.45,11.56,16.81,25.81,12.39,42s-15.42,27-32.2,30.49C232.58,282.48,219.57,277.38,208.86,266.18Z"
              transform="translate(-11 -10.34)"/>
        <path class="cls-2"
              d="M17.39,185.73c-2.25-4.83-3-10.06-4.1-15.2-2.29-10.84-2.53-21.85-2.1-32.85a126.38,126.38,0,0,1,5.55-31.56,5.62,5.62,0,0,1,.66-1.13l.25.2a5.55,5.55,0,0,1-.11.78c-4.78,16.41-6.19,33.16-5.3,50.19A77.25,77.25,0,0,0,13,163.9a207.07,207.07,0,0,0,4.6,21.63Z"
              transform="translate(-11 -10.34)"/>
        <path class="cls-2" d="M18.43,188.93a2.38,2.38,0,0,1-.5-1.63l.19-.14a2.1,2.1,0,0,1,.5,1.61Z"
              transform="translate(-11 -10.34)"/>
        <path class="cls-2" d="M19,190.49c-.49-.41-.45-1-.56-1.56l.19-.15a2,2,0,0,1,.52,1.59Z"
              transform="translate(-11 -10.34)"/>
        <path class="cls-2" d="M17.93,187.3c-.5-.41-.44-1-.54-1.57l.26-.2a2.43,2.43,0,0,1,.47,1.63Z"
              transform="translate(-11 -10.34)"/>
        <path class="cls-2" d="M17.39,105l.52-1.6.21.17a2.43,2.43,0,0,1-.47,1.63Z" transform="translate(-11 -10.34)"/>
        <path class="cls-2" d="M17.9,103.39l.52-1.59.19.16a2.1,2.1,0,0,1-.5,1.61Z" transform="translate(-11 -10.34)"/>
        <path class="cls-2" d="M18.43,101.8c.11-.54.06-1.15.56-1.55l.16.12a2,2,0,0,1-.52,1.59Z"
              transform="translate(-11 -10.34)"/>
        <path class="cls-1"
              d="M91.72,124.23a59,59,0,0,0,.72,42.89c-.56.81-1.49.86-2.31,1.14-8.44,2.82-16.73,6.21-25.34,8.32C50,180.21,36,186.06,21.53,190.52c-.84.26-1.64.78-2.38-.15a2,2,0,0,0-.52-1.59,2.1,2.1,0,0,0-.5-1.61,2.43,2.43,0,0,0-.47-1.63A207.11,207.11,0,0,1,13,163.9a77.25,77.25,0,0,1-.81-7.73c-.89-17,.52-33.78,5.3-50.19a5.55,5.55,0,0,0,.11-.78,2.43,2.43,0,0,0,.47-1.63,2.1,2.1,0,0,0,.5-1.61,2,2,0,0,0,.52-1.59c.64-.77,1.33-.52,2.13-.24Q56.14,112,91,123.87A5.46,5.46,0,0,1,91.72,124.23Z"
              transform="translate(-11 -10.34)"/>
    </g>
</svg>