<svg xmlns="http://www.w3.org/2000/svg" width="131" height="191.88" viewBox="0 0 131 191.88"><defs><style>.cls-1{fill:#146b7f;}.cls-2{fill:#13adb7;}.cls-3{fill:#fc0;stroke:#fdc00f;stroke-width:5px;}.cls-3,.cls-4{stroke-linecap:round;stroke-linejoin:round;}.cls-4{fill:#fdc00f;stroke:#f9b233;stroke-width:3px;}.cls-5{fill:#ffd633;}</style></defs><title>Asset 1</title><g id="Layer_2" data-name="Layer 2"><g id="Objects"><polyline class="cls-1" points="32.3 162.07 43.15 191.88 75.99 101.65 37.68 87.7 4.84 177.93 32.3 162.07"/><polyline class="cls-2" points="98.69 162.07 126.16 177.93 93.32 87.7 55.01 101.65 87.85 191.88 98.69 162.07"/><circle class="cls-3" cx="65.5" cy="65.5" r="63"/><polygon class="cls-4" points="65.5 9.38 72.42 15.46 80.71 11.47 85.73 19.19 94.8 17.59 97.55 26.37 106.71 27.28 106.98 36.48 115.56 39.82 113.35 48.76 120.7 54.29 116.16 62.3 121.75 69.61 115.22 76.09 118.63 84.64 110.58 89.12 111.56 98.28 102.61 100.42 101.08 109.5 91.88 109.15 87.96 117.48 79.2 114.66 73.18 121.62 65.5 116.54 57.82 121.62 51.8 114.66 43.04 117.48 39.12 109.15 29.92 109.5 28.39 100.42 19.44 98.28 20.42 89.12 12.37 84.64 15.79 76.09 9.25 69.61 14.84 62.3 10.3 54.29 17.65 48.76 15.44 39.82 24.02 36.48 24.3 27.28 33.45 26.37 36.2 17.59 45.27 19.19 50.29 11.47 58.59 15.46 65.5 9.38"/><circle class="cls-5" cx="65.5" cy="65.5" r="44.1"/></g></g></svg>