<svg xmlns="http://www.w3.org/2000/svg" width="185.01" height="189.19" viewBox="0 0 185.01 189.19"><defs><style>.cls-1{fill:#146b7f;}.cls-2{fill:#13adb7;}.cls-3{fill:#fdc00f;}.cls-4{fill:#fc0;}.cls-5{fill:#ffd633;stroke-miterlimit:10;stroke-width:5px;}.cls-5,.cls-6{stroke:#fdc00f;}.cls-6{fill:none;stroke-linecap:round;stroke-linejoin:round;stroke-width:3px;}</style></defs><title>Asset 3</title><g id="Layer_2" data-name="Layer 2"><g id="Objects"><polyline class="cls-1" points="60.21 159.38 71.05 189.19 103.89 98.96 65.58 85.01 32.74 175.24 60.21 159.38"/><polyline class="cls-2" points="126.6 159.38 154.07 175.24 121.23 85.01 82.92 98.96 115.76 189.19 126.6 159.38"/><path class="cls-3" d="M30.64,15.35c-3.32,3.63-5.15,4.11-6.46,3.13s-1.51-3.18,2.08-7.11,8.44-5.12,8.94-4.54S34,11.72,30.64,15.35Z"/><path class="cls-4" d="M20.83,18.9c-.27,4.44-1.48,6.1-3.16,6.64s-3.28-.29-3.2-4.88,3.14-9.1,4-9.29S21.1,14.46,20.83,18.9Z"/><path class="cls-3" d="M24.82,21.74c-4,1.51-4.93,3.63-4.53,5.31s1.94,2.3,5.68.75,6.46-4.56,6.36-5.34S28.79,20.23,24.82,21.74Z"/><path class="cls-4" d="M14.68,29.12c.45,4.36-.47,6.16-2,6.93s-3.27.19-3.92-4.3,1.61-9.32,2.43-9.63S14.22,24.76,14.68,29.12Z"/><path class="cls-3" d="M19.06,31.32c-3.66,2-4.27,4.25-3.6,5.84s2.28,2,5.71-.1,5.6-5.37,5.38-6.12S22.72,29.27,19.06,31.32Z"/><path class="cls-4" d="M10.25,40c1.13,4.2.49,6.1-1,7.09s-3.2.67-4.53-3.64.13-9.36.9-9.78S9.12,35.8,10.25,40Z"/><path class="cls-3" d="M14.91,41.5c-3.29,2.54-3.55,4.79-2.66,6.25s2.55,1.58,5.62-.94,4.69-6.08,4.35-6.77S18.2,39,14.91,41.5Z"/><path class="cls-4" d="M7.54,51.31c1.75,4,1.4,5.93.12,7.12s-3.06,1.13-5-2.91-1.28-9.22-.59-9.75S5.79,47.35,7.54,51.31Z"/><path class="cls-3" d="M12.38,52.09c-2.87,3-2.79,5.24-1.69,6.54s2.76,1.18,5.42-1.76,3.72-6.67,3.28-7.3S15.24,49.11,12.38,52.09Z"/><path class="cls-4" d="M6.56,62.85c2.32,3.65,2.26,5.65,1.18,7s-2.86,1.58-5.4-2.13-2.63-8.9-2-9.52S4.24,59.2,6.56,62.85Z"/><path class="cls-3" d="M11.46,62.9c-2.39,3.37-2,5.59-.7,6.72s2.9.75,5.1-2.55,2.69-7.13,2.16-7.69S13.85,59.54,11.46,62.9Z"/><path class="cls-4" d="M7.3,74.4c2.83,3.27,3.08,5.26,2.21,6.78s-2.59,2-5.66-1.3S-.08,71.46.43,70.75,4.46,71.13,7.3,74.4Z"/><path class="cls-3" d="M12.15,73.72c-1.87,3.69-1.13,5.84.31,6.76s3,.31,4.66-3.29,1.6-7.47,1-7.94S14,70,12.15,73.72Z"/><path class="cls-4" d="M9.75,85.76c3.3,2.83,3.85,4.78,3.23,6.42s-2.26,2.37-5.8-.46S2,83.93,2.42,83.15,6.46,82.93,9.75,85.76Z"/><path class="cls-3" d="M14.45,84.36c-1.28,4-.23,6,1.34,6.69s3-.14,4.1-4,.45-7.67-.22-8S15.74,80.41,14.45,84.36Z"/><path class="cls-4" d="M13.94,96.71c3.71,2.33,4.57,4.2,4.21,5.94s-1.86,2.7-5.82.4S6,96,6.26,95.2,10.23,94.38,13.94,96.71Z"/><path class="cls-3" d="M18.37,94.61c-.65,4.13.72,6,2.39,6.48s2.95-.58,3.43-4.58-.77-7.73-1.49-8S19,90.48,18.37,94.61Z"/><path class="cls-4" d="M19.84,107c4.07,1.79,5.25,3.54,5.19,5.34s-1.41,3-5.73,1.26-7.45-6.09-7.32-7S15.78,105.25,19.84,107Z"/><path class="cls-3" d="M23.9,104.29c0,4.24,1.72,5.92,3.46,6.15s2.83-1,2.64-5.1-2-7.62-2.79-7.79S23.87,100,23.9,104.29Z"/><path class="cls-4" d="M27.47,116.53c4.37,1.2,5.87,2.79,6.14,4.61s-.88,3.2-5.52,2.09-8.5-5-8.52-5.93S23.1,115.33,27.47,116.53Z"/><path class="cls-3" d="M31,113.18c.77,4.25,2.77,5.7,4.56,5.68s2.65-1.43,1.73-5.51S34,106,33.18,105.92,30.27,108.93,31,113.18Z"/><path class="cls-3" d="M154.37,15.35c3.32,3.63,5.16,4.11,6.46,3.12s1.51-3.18-2.08-7.11-8.44-5.13-8.94-4.54S151.05,11.72,154.37,15.35Z"/><path class="cls-4" d="M164.19,18.9c.27,4.44,1.47,6.1,3.16,6.64s3.28-.29,3.2-4.89-3.14-9.1-4-9.29S163.91,14.46,164.19,18.9Z"/><path class="cls-3" d="M160.19,21.75c4,1.51,4.93,3.63,4.53,5.31s-1.94,2.3-5.68.74-6.46-4.56-6.36-5.34S156.22,20.23,160.19,21.75Z"/><path class="cls-4" d="M170.34,29.12c-.45,4.36.47,6.17,2,6.94s3.27.19,3.92-4.31-1.61-9.32-2.43-9.63S170.79,24.76,170.34,29.12Z"/><path class="cls-3" d="M166,31.32c3.66,2,4.27,4.25,3.6,5.84s-2.28,2-5.71-.1-5.61-5.37-5.38-6.12S162.3,29.27,166,31.32Z"/><path class="cls-4" d="M174.77,40c-1.12,4.2-.49,6.1.95,7.09s3.2.67,4.54-3.64-.13-9.36-.9-9.78S175.89,35.8,174.77,40Z"/><path class="cls-3" d="M170.1,41.5c3.29,2.54,3.55,4.79,2.65,6.25s-2.55,1.58-5.62-.94-4.69-6.08-4.36-6.78S166.81,39,170.1,41.5Z"/><path class="cls-4" d="M177.47,51.31c-1.75,4-1.4,5.93-.13,7.12s3.07,1.14,5-2.91,1.28-9.22.59-9.75S179.22,47.35,177.47,51.31Z"/><path class="cls-3" d="M172.63,52.09c2.86,3,2.79,5.24,1.69,6.54s-2.76,1.18-5.42-1.76-3.72-6.67-3.28-7.3S169.77,49.11,172.63,52.09Z"/><path class="cls-4" d="M178.46,62.85c-2.32,3.65-2.26,5.65-1.18,7s2.86,1.58,5.4-2.13,2.63-8.9,2-9.53S180.77,59.2,178.46,62.85Z"/><path class="cls-3" d="M173.55,62.9c2.39,3.37,2,5.59.7,6.72s-2.9.75-5.1-2.55-2.69-7.13-2.16-7.69S171.16,59.54,173.55,62.9Z"/><path class="cls-4" d="M177.72,74.4c-2.83,3.27-3.08,5.26-2.21,6.78s2.59,2,5.66-1.3,3.93-8.43,3.42-9.14S180.55,71.13,177.72,74.4Z"/><path class="cls-3" d="M172.86,73.72c1.86,3.69,1.13,5.84-.31,6.76s-3,.31-4.66-3.29-1.6-7.47-1-7.94S171,70,172.86,73.72Z"/><path class="cls-4" d="M175.26,85.76c-3.29,2.83-3.85,4.77-3.23,6.42s2.26,2.37,5.8-.45,5.16-7.79,4.77-8.57S178.55,82.93,175.26,85.76Z"/><path class="cls-3" d="M170.56,84.36c1.28,4,.22,6-1.34,6.69s-3-.14-4.1-4-.45-7.67.22-8S169.28,80.41,170.56,84.36Z"/><path class="cls-4" d="M171.08,96.71c-3.7,2.33-4.57,4.2-4.21,5.93s1.86,2.71,5.82.41,6.34-7,6.07-7.85S174.78,94.38,171.08,96.71Z"/><path class="cls-3" d="M166.65,94.61c.65,4.13-.72,6-2.4,6.48s-2.94-.58-3.43-4.58.76-7.72,1.48-8S166,90.48,166.65,94.61Z"/><path class="cls-4" d="M165.17,107c-4.06,1.79-5.24,3.54-5.19,5.33s1.41,3,5.73,1.26,7.45-6.09,7.32-7S169.24,105.25,165.17,107Z"/><path class="cls-3" d="M161.11,104.28c0,4.24-1.72,5.92-3.46,6.15s-2.83-1-2.64-5.1,2-7.62,2.79-7.79S161.15,100,161.11,104.28Z"/><path class="cls-4" d="M157.55,116.53c-4.37,1.2-5.87,2.8-6.14,4.61s.88,3.2,5.52,2.09,8.51-5,8.52-5.93S161.92,115.33,157.55,116.53Z"/><path class="cls-3" d="M154,113.18c-.77,4.25-2.77,5.7-4.56,5.68s-2.65-1.43-1.73-5.51,3.36-7.36,4.15-7.42S154.74,108.93,154,113.18Z"/><ellipse class="cls-5" cx="92.51" cy="65" rx="67.5" ry="62.5"/><path class="cls-6" d="M141.27,95.31c-10.54,14.51-28.45,24.06-48.76,24.06s-38.22-9.55-48.76-24.06"/><path class="cls-6" d="M33.91,68.64q-.13-1.81-.13-3.64c0-30,26.29-54.37,58.72-54.37S151.23,35,151.23,65q0,1.84-.13,3.64"/></g></g></svg>